<svg id="svg" version="1.1" xmlns="http://www.w3.org/2000/svg" viewBox="175 295 1220 380" style="display: block;"><path d="M0 0 C506.88 0 1013.76 0 1536 0 C1536 337.92 1536 675.84 1536 1024 C1029.12 1024 522.24 1024 0 1024 C0 686.08 0 348.16 0 0 Z " transform="translate(0,0)" style="fill: #FCFCFC;"/><path d="M0 0 C0.66 0.33 1.32 0.66 2 1 C1.27425781 1.72445313 0.54851562 2.44890625 -0.19921875 3.1953125 C-1.93630042 4.93481687 -3.66895135 6.67877282 -5.39453125 8.4296875 C-6.19246094 9.23664063 -6.99039062 10.04359375 -7.8125 10.875 C-8.60269531 11.67679687 -9.39289063 12.47859375 -10.20703125 13.3046875 C-13.01573993 16.01518958 -15.92221083 18.56511655 -18.86987305 21.12158203 C-22.49956255 24.32236496 -25.99328777 27.66574903 -29.5 31 C-34.25619522 35.52228398 -39.05938822 39.95388314 -44.01757812 44.25390625 C-47.42257139 47.25298406 -50.706212 50.37990786 -54 53.5 C-58.59297819 57.85077036 -63.24050695 62.10601031 -68.01757812 66.25390625 C-71.33432553 69.17525815 -74.53859788 72.21388841 -77.75 75.25 C-83.48412664 80.64858736 -89.25068306 86.00571193 -95.06640625 91.31640625 C-98.26345269 94.24100133 -101.44481783 97.18210335 -104.625 100.125 C-108.32834069 103.55072569 -112.04912505 106.95256893 -115.8125 110.3125 C-120.93763074 114.9042838 -125.94499801 119.61789701 -130.95605469 124.33325195 C-135.12813861 128.25605731 -139.32742093 132.14535794 -143.5625 136 C-147.22527683 139.34148062 -150.78315027 142.74255382 -154.25219727 146.28320312 C-156.01236652 148.01214714 -157.8330631 149.62534059 -159.703125 151.234375 C-163.90215497 154.88762717 -167.96132764 158.67114743 -172 162.5 C-173.48160404 163.89991613 -174.96337941 165.29965095 -176.4453125 166.69921875 C-177.19458008 167.40739746 -177.94384766 168.11557617 -178.71582031 168.84521484 C-183.10110734 172.98208352 -187.5059912 177.09809063 -191.91015625 181.21484375 C-192.53535156 181.80007813 -193.16054688 182.3853125 -193.8046875 182.98828125 C-194.35108887 183.49915283 -194.89749023 184.01002441 -195.46044922 184.53637695 C-196.53088248 185.55401847 -197.56728172 186.60817878 -198.57470703 187.68823242 C-200 189 -200 189 -202 189 C-202 189.66 -202 190.32 -202 191 C-203.45556641 192.4519043 -203.45556641 192.4519043 -205.4765625 194.13671875 C-209.90296424 197.90198393 -214.15018541 201.823498 -218.375 205.8125 C-219.11741943 206.51173584 -219.85983887 207.21097168 -220.62475586 207.93139648 C-225.38628158 212.43119149 -230.06555426 216.99003227 -234.62890625 221.69140625 C-236.60793075 223.61826536 -238.62216509 225.4157293 -240.71484375 227.21484375 C-245.37148482 231.25573062 -249.67937366 235.60564283 -254 240 C-262.42669673 248.57049702 -262.42669673 248.57049702 -266.625 252.125 C-273.46207901 258.00082632 -279.66228321 264.59789421 -286 271 C-301.37310625 286.52929166 -301.37310625 286.52929166 -307.4296875 291.65673828 C-309.73969327 293.63274135 -311.86828178 295.77247369 -314 297.9375 C-315.1446875 299.09572266 -315.1446875 299.09572266 -316.3125 300.27734375 C-316.869375 300.84582031 -317.42625 301.41429687 -318 302 C-317.071875 301.195625 -316.14375 300.39125 -315.1875 299.5625 C-312.08747695 296.89909991 -308.92930419 294.31807497 -305.75 291.75 C-300.92334863 287.82010353 -296.33247276 283.68650054 -291.75390625 279.47265625 C-288.16792716 276.25290481 -284.43298508 273.24094824 -280.68359375 270.21484375 C-278.05291443 268.04367173 -275.52057576 265.79758643 -273 263.5 C-269.68010514 260.47717579 -266.30235888 257.57487839 -262.8125 254.75 C-257.67272685 250.58888605 -252.67429337 246.28398998 -247.69091797 241.93847656 C-244.16542485 238.86716618 -240.61787449 235.82816743 -237.02954102 232.83056641 C-231.14774157 227.91478555 -225.48268258 222.80988642 -219.8918457 217.56567383 C-216.85036802 214.7128681 -213.78882849 211.90554443 -210.625 209.1875 C-207.24153463 206.27196069 -204.12464558 203.14214979 -200.9921875 199.9609375 C-199.09672926 198.09521194 -197.14553265 196.35340745 -195.125 194.625 C-191.09561554 191.16446982 -187.39145122 187.42905801 -183.6875 183.625 C-181.63748433 181.62265911 -179.5805116 179.76384991 -177.40625 177.90625 C-171.81961918 173.06380452 -166.68875171 167.75925562 -161.5 162.5 C-159.51349704 160.48650477 -157.523424 158.47663278 -155.53125 156.46875 C-154.66048828 155.58638672 -153.78972656 154.70402344 -152.89257812 153.79492188 C-150.72281565 151.64950836 -148.46066743 149.6433774 -146.15039062 147.65039062 C-141.92904433 143.98963554 -137.98793287 140.09852608 -134.0625 136.125 C-133.33812744 135.39684082 -132.61375488 134.66868164 -131.86743164 133.91845703 C-129.57581697 131.61474354 -127.28749348 129.30780526 -125 127 C-121.98214919 123.95535221 -118.96086584 120.91417033 -115.9375 117.875 C-115.26017822 117.18937988 -114.58285645 116.50375977 -113.88500977 115.79736328 C-110.00287406 111.89562807 -106.00445878 108.2093598 -101.83721924 104.61459351 C-99.31639502 102.39923111 -96.96444256 100.04189524 -94.6171875 97.64453125 C-93.66809977 96.68281339 -92.71887714 95.72122865 -91.76953125 94.75976562 C-90.31525275 93.28063397 -88.8626791 91.7998973 -87.41259766 90.31665039 C-85.98529174 88.8589406 -84.55165501 87.40768945 -83.1171875 85.95703125 C-81.85817627 84.67276245 -81.85817627 84.67276245 -80.57373047 83.36254883 C-77.84494351 80.85766632 -75.12608036 78.97138407 -72 77 C-73.45188594 80.35043397 -75.2819659 82.50486196 -77.88671875 85.046875 C-78.66080078 85.81 -79.43488281 86.573125 -80.23242188 87.359375 C-81.04259766 88.14828125 -81.85277344 88.9371875 -82.6875 89.75 C-87.74813847 94.69927967 -92.6795902 99.66173206 -97.29077148 105.03466797 C-100.31845284 108.5160042 -103.51214692 111.84133697 -106.6875 115.1875 C-111.64125431 120.42529327 -116.5678017 125.6839791 -121.4375 131 C-125.50781656 135.43948165 -129.69885996 139.72921745 -133.98828125 143.95703125 C-136.47205832 146.47939127 -138.76284697 149.13747219 -141.06176758 151.82739258 C-143.20029046 154.22450999 -145.43906124 156.4869513 -147.71875 158.75 C-148.52248047 159.54921875 -149.32621094 160.3484375 -150.15429688 161.171875 C-151.06791992 162.07679688 -151.06791992 162.07679688 -152 163 C-150.84177734 162.9685791 -149.68355469 162.9371582 -148.49023438 162.90478516 C-144.1143881 162.79461558 -139.73865879 162.72674501 -135.36181641 162.67041016 C-133.48237368 162.64058791 -131.60306567 162.59991424 -129.72412109 162.54736328 C-112.38222855 162.07516012 -97.17260662 164.62118238 -84 177 C-80.90331529 180.45317591 -78.38377348 184.02524648 -76 188 C-75.47148437 188.85722656 -74.94296875 189.71445312 -74.3984375 190.59765625 C-68.58487865 201.88375514 -69.2399769 217.30268592 -72.6875 229.3125 C-73.40445463 231.22935787 -74.17084223 233.12894002 -75 235 C-75.350625 235.80179688 -75.70125 236.60359375 -76.0625 237.4296875 C-83.37658329 252.10864632 -97.13477053 261.90632079 -112.32003784 267.14546204 C-125.27857186 270.6635967 -138.06231383 270.47618733 -151.41440201 270.33302879 C-155.65416489 270.28807223 -159.89354209 270.28026729 -164.1335144 270.27839661 C-176.17607707 270.26794619 -188.21810931 270.2143832 -200.26025391 270.11352539 C-206.94224297 270.05788169 -213.6235663 270.03511765 -220.30578411 270.04685193 C-223.8240101 270.05147605 -227.34033428 270.03946301 -230.85818863 269.98549461 C-246.61416417 269.75179646 -258.51183764 269.76404708 -271 280 C-272.67518678 281.09788402 -274.36128858 282.179672 -276.06640625 283.23046875 C-277.56670899 284.21370141 -279.06540291 285.19939319 -280.5625 286.1875 C-287.73748668 290.88698003 -294.94492417 295.53034921 -302.1875 300.125 C-308.83437355 304.34209009 -315.46240265 308.58508762 -322.0625 312.875 C-324.70611525 314.58678775 -327.35229834 316.29454092 -330 318 C-330.64420898 318.41604492 -331.28841797 318.83208984 -331.95214844 319.26074219 C-333.77501197 320.43291502 -335.6047485 321.59336677 -337.4375 322.75 C-338.98244141 323.73226562 -338.98244141 323.73226562 -340.55859375 324.734375 C-341.76708984 325.36085938 -341.76708984 325.36085938 -343 326 C-343.66 325.67 -344.32 325.34 -345 325 C-339.41194176 318.05463563 -333.66656161 311.27508625 -327.80664062 304.55932617 C-324.57191555 300.84270273 -321.40765317 297.08470305 -318.3125 293.25 C-314.53324122 288.57947178 -310.52933977 284.16109827 -306.4609375 279.7421875 C-304.08960105 277.09984117 -301.84747003 274.39305833 -299.625 271.625 C-295.24055753 266.19108991 -290.54499937 261.10173982 -285.78515625 256 C-283.02278656 253.03721767 -280.34723412 250.00719301 -277.6953125 246.9453125 C-271.76471752 240.14015974 -265.64369893 233.49899715 -259.5546875 226.8359375 C-257.56737474 224.62983802 -255.61044484 222.40584856 -253.6640625 220.1640625 C-249.43797011 215.32168874 -245.02476617 210.66532016 -240.60546875 206 C-237.48195215 202.68894306 -234.41385658 199.35064937 -231.4375 195.90625 C-227.78768612 191.70218991 -223.87690612 187.81907385 -219.89453125 183.93359375 C-217.17930213 181.25781106 -214.58867804 178.5475063 -212.13061523 175.6328125 C-206.61163009 169.29847443 -200.57898262 163.45590339 -194.62890625 157.53125 C-193.33831715 156.24252928 -192.0479511 154.95358515 -190.75779724 153.66442871 C-187.38499816 150.29542172 -184.00920538 146.92943045 -180.63275146 143.56408691 C-177.17846255 140.12008377 -173.72705315 136.67319751 -170.27539062 133.2265625 C-163.51972087 126.48157161 -156.76088066 119.73976742 -150 113 C-157.54387915 112.92371008 -165.08765817 112.87129932 -172.63183594 112.83520508 C-175.19632688 112.82015221 -177.76079223 112.79970539 -180.32519531 112.77368164 C-184.01894463 112.73714533 -187.71235246 112.72023806 -191.40625 112.70703125 C-193.1160907 112.68380547 -193.1160907 112.68380547 -194.86047363 112.66011047 C-203.79251632 112.65823735 -210.74459373 114.0257143 -217.45703125 120.27734375 C-222.0025122 125.35217185 -223.75908092 130.61574678 -223.4453125 137.4140625 C-222.15907153 144.88328639 -218.46010022 150.3856427 -212.35546875 154.74609375 C-211.90816406 155.15988281 -211.46085938 155.57367188 -211 156 C-211 159 -211 159 -212.875 161.125 C-213.90598033 162.09482048 -214.9497867 163.05104044 -216 164 C-216.73992187 164.67417969 -217.47984375 165.34835937 -218.2421875 166.04296875 C-219.94391334 167.58300413 -221.65386469 169.11398956 -223.37109375 170.63671875 C-225.10036151 172.19126109 -226.80225172 173.77690411 -228.47265625 175.39453125 C-229.24480469 176.13058594 -230.01695312 176.86664063 -230.8125 177.625 C-231.49957031 178.29789063 -232.18664062 178.97078125 -232.89453125 179.6640625 C-235 181 -235 181 -237.49609375 180.89453125 C-248.96987815 176.79547255 -257.67042538 164.66077983 -262.7109375 154.15234375 C-263.13632812 153.11207031 -263.56171875 152.07179688 -264 151 C-264.26852783 150.34692871 -264.53705566 149.69385742 -264.8137207 149.02099609 C-267.11573759 142.89821846 -267.50555906 137.25504155 -267.4375 130.75 C-267.42992676 129.73655518 -267.42235352 128.72311035 -267.41455078 127.67895508 C-267.04336129 110.75461069 -260.17011043 97.69172559 -248 86 C-233.83080957 74.17162612 -218.70663057 68.75707657 -200.359375 68.92163086 C-198.65275127 68.92774207 -196.94612688 68.93366932 -195.23950195 68.93943787 C-194.3457486 68.94411009 -193.45199524 68.94878231 -192.53115845 68.95359612 C-187.73820458 68.97297991 -182.94530979 68.95753839 -178.15234375 68.94726562 C-172.08062077 68.93506185 -166.00960104 68.93318701 -159.93798828 68.97583008 C-155.0069866 69.00953209 -150.0773629 69.00355959 -145.1463623 68.97226143 C-143.28395888 68.96738656 -141.42145801 68.97637374 -139.5592041 69.00047112 C-126.31857136 69.16168024 -117.33267804 66.84772864 -106 60 C-104.05140762 58.92640719 -102.1002511 57.85742846 -100.14453125 56.796875 C-98.36478969 55.78545771 -96.58745392 54.76979583 -94.8125 53.75 C-93.35432861 52.91940063 -93.35432861 52.91940063 -91.86669922 52.07202148 C-88.9085899 50.38575048 -85.95385786 48.69370519 -83 47 C-79.54197615 45.02029238 -76.08349582 43.04138295 -72.625 41.0625 C-71.77574951 40.57612061 -70.92649902 40.08974121 -70.05151367 39.58862305 C-62.21602538 35.10775121 -54.34113182 30.69851007 -46.4621582 26.29467773 C-39.23601518 22.25497974 -32.01984186 18.19814545 -24.8125 14.125 C-23.86366943 13.5899585 -22.91483887 13.05491699 -21.93725586 12.50366211 C-17.78151997 10.15670853 -13.63577822 7.79731216 -9.5234375 5.375 C-8.86496826 4.98940918 -8.20649902 4.60381836 -7.52807617 4.20654297 C-5.83120319 3.20944159 -4.13993943 2.20281071 -2.44921875 1.1953125 C-1.23685547 0.60363281 -1.23685547 0.60363281 0 0 Z " transform="translate(542,320)" style="fill: #28292A;"/><path d="M0 0 C0.66 0.33 1.32 0.66 2 1 C1.27425781 1.72445313 0.54851562 2.44890625 -0.19921875 3.1953125 C-1.93630042 4.93481687 -3.66895135 6.67877282 -5.39453125 8.4296875 C-6.19246094 9.23664063 -6.99039062 10.04359375 -7.8125 10.875 C-8.60269531 11.67679687 -9.39289063 12.47859375 -10.20703125 13.3046875 C-13.01573993 16.01518958 -15.92221083 18.56511655 -18.86987305 21.12158203 C-22.49956255 24.32236496 -25.99328777 27.66574903 -29.5 31 C-34.25619522 35.52228398 -39.05938822 39.95388314 -44.01757812 44.25390625 C-47.42257139 47.25298406 -50.706212 50.37990786 -54 53.5 C-58.59297819 57.85077036 -63.24050695 62.10601031 -68.01757812 66.25390625 C-71.33432553 69.17525815 -74.53859788 72.21388841 -77.75 75.25 C-83.48412664 80.64858736 -89.25068306 86.00571193 -95.06640625 91.31640625 C-98.26345269 94.24100133 -101.44481783 97.18210335 -104.625 100.125 C-108.32834069 103.55072569 -112.04912505 106.95256893 -115.8125 110.3125 C-120.93763074 114.9042838 -125.94499801 119.61789701 -130.95605469 124.33325195 C-135.12813861 128.25605731 -139.32742093 132.14535794 -143.5625 136 C-147.22527683 139.34148062 -150.78315027 142.74255382 -154.25219727 146.28320312 C-156.01236652 148.01214714 -157.8330631 149.62534059 -159.703125 151.234375 C-163.90215497 154.88762717 -167.96132764 158.67114743 -172 162.5 C-173.48160404 163.89991613 -174.96337941 165.29965095 -176.4453125 166.69921875 C-177.19458008 167.40739746 -177.94384766 168.11557617 -178.71582031 168.84521484 C-183.10110734 172.98208352 -187.5059912 177.09809063 -191.91015625 181.21484375 C-192.53535156 181.80007813 -193.16054688 182.3853125 -193.8046875 182.98828125 C-194.35108887 183.49915283 -194.89749023 184.01002441 -195.46044922 184.53637695 C-196.53088248 185.55401847 -197.56728172 186.60817878 -198.57470703 187.68823242 C-200 189 -200 189 -202 189 C-202 189.66 -202 190.32 -202 191 C-203.45556641 192.4519043 -203.45556641 192.4519043 -205.4765625 194.13671875 C-209.90296424 197.90198393 -214.15018541 201.823498 -218.375 205.8125 C-219.11741943 206.51173584 -219.85983887 207.21097168 -220.62475586 207.93139648 C-225.38628158 212.43119149 -230.06555426 216.99003227 -234.62890625 221.69140625 C-236.60793075 223.61826536 -238.62216509 225.4157293 -240.71484375 227.21484375 C-245.37148482 231.25573062 -249.67937366 235.60564283 -254 240 C-262.42669673 248.57049702 -262.42669673 248.57049702 -266.625 252.125 C-273.46207901 258.00082632 -279.66228321 264.59789421 -286 271 C-301.41209977 286.56868134 -301.41209977 286.56868134 -307.43847656 291.67431641 C-309.68333514 293.58012974 -311.7841765 295.61527814 -313.875 297.6875 C-314.61492187 298.41324219 -315.35484375 299.13898438 -316.1171875 299.88671875 C-318.03616502 301.83695044 -318.03616502 301.83695044 -318.8984375 303.92578125 C-320.55925827 307.05307142 -323.1450631 309.1682638 -325.75 311.5 C-326.26304687 311.97308594 -326.77609375 312.44617188 -327.3046875 312.93359375 C-329.88430846 315.2734007 -332.44738715 317.35112551 -335.390625 319.21875 C-336.25171875 319.8065625 -337.1128125 320.394375 -338 321 C-338 321.66 -338 322.32 -338 323 C-340.375 324.6875 -340.375 324.6875 -343 326 C-343.66 325.67 -344.32 325.34 -345 325 C-339.41194176 318.05463563 -333.66656161 311.27508625 -327.80664062 304.55932617 C-324.57191555 300.84270273 -321.40765317 297.08470305 -318.3125 293.25 C-314.53324122 288.57947178 -310.52933977 284.16109827 -306.4609375 279.7421875 C-304.08960105 277.09984117 -301.84747003 274.39305833 -299.625 271.625 C-295.24055753 266.19108991 -290.54499937 261.10173982 -285.78515625 256 C-283.02278656 253.03721767 -280.34723412 250.00719301 -277.6953125 246.9453125 C-271.76471752 240.14015974 -265.64369893 233.49899715 -259.5546875 226.8359375 C-257.56737474 224.62983802 -255.61044484 222.40584856 -253.6640625 220.1640625 C-249.43797011 215.32168874 -245.02476617 210.66532016 -240.60546875 206 C-237.48195215 202.68894306 -234.41385658 199.35064937 -231.4375 195.90625 C-227.78768612 191.70218991 -223.87690612 187.81907385 -219.89453125 183.93359375 C-217.17930213 181.25781106 -214.58867804 178.5475063 -212.13061523 175.6328125 C-206.61163009 169.29847443 -200.57898262 163.45590339 -194.62890625 157.53125 C-193.33831715 156.24252928 -192.0479511 154.95358515 -190.75779724 153.66442871 C-187.38499816 150.29542172 -184.00920538 146.92943045 -180.63275146 143.56408691 C-177.17846255 140.12008377 -173.72705315 136.67319751 -170.27539062 133.2265625 C-163.51972087 126.48157161 -156.76088066 119.73976742 -150 113 C-157.54387915 112.92371008 -165.08765817 112.87129932 -172.63183594 112.83520508 C-175.19632688 112.82015221 -177.76079223 112.79970539 -180.32519531 112.77368164 C-184.01894463 112.73714533 -187.71235246 112.72023806 -191.40625 112.70703125 C-193.1160907 112.68380547 -193.1160907 112.68380547 -194.86047363 112.66011047 C-203.79251632 112.65823735 -210.74459373 114.0257143 -217.45703125 120.27734375 C-222.0025122 125.35217185 -223.75908092 130.61574678 -223.4453125 137.4140625 C-222.15907153 144.88328639 -218.46010022 150.3856427 -212.35546875 154.74609375 C-211.90816406 155.15988281 -211.46085938 155.57367188 -211 156 C-211 159 -211 159 -212.875 161.125 C-213.90598033 162.09482048 -214.9497867 163.05104044 -216 164 C-216.73992187 164.67417969 -217.47984375 165.34835937 -218.2421875 166.04296875 C-219.94391334 167.58300413 -221.65386469 169.11398956 -223.37109375 170.63671875 C-225.10036151 172.19126109 -226.80225172 173.77690411 -228.47265625 175.39453125 C-229.24480469 176.13058594 -230.01695312 176.86664063 -230.8125 177.625 C-231.49957031 178.29789063 -232.18664062 178.97078125 -232.89453125 179.6640625 C-235 181 -235 181 -237.49609375 180.89453125 C-248.96987815 176.79547255 -257.67042538 164.66077983 -262.7109375 154.15234375 C-263.13632812 153.11207031 -263.56171875 152.07179688 -264 151 C-264.26852783 150.34692871 -264.53705566 149.69385742 -264.8137207 149.02099609 C-267.11573759 142.89821846 -267.50555906 137.25504155 -267.4375 130.75 C-267.42992676 129.73655518 -267.42235352 128.72311035 -267.41455078 127.67895508 C-267.04336129 110.75461069 -260.17011043 97.69172559 -248 86 C-233.83080957 74.17162612 -218.70663057 68.75707657 -200.359375 68.92163086 C-198.65275127 68.92774207 -196.94612688 68.93366932 -195.23950195 68.93943787 C-194.3457486 68.94411009 -193.45199524 68.94878231 -192.53115845 68.95359612 C-187.73820458 68.97297991 -182.94530979 68.95753839 -178.15234375 68.94726562 C-172.08062077 68.93506185 -166.00960104 68.93318701 -159.93798828 68.97583008 C-155.0069866 69.00953209 -150.0773629 69.00355959 -145.1463623 68.97226143 C-143.28395888 68.96738656 -141.42145801 68.97637374 -139.5592041 69.00047112 C-126.31857136 69.16168024 -117.33267804 66.84772864 -106 60 C-104.05140762 58.92640719 -102.1002511 57.85742846 -100.14453125 56.796875 C-98.36478969 55.78545771 -96.58745392 54.76979583 -94.8125 53.75 C-93.35432861 52.91940063 -93.35432861 52.91940063 -91.86669922 52.07202148 C-88.9085899 50.38575048 -85.95385786 48.69370519 -83 47 C-79.54197615 45.02029238 -76.08349582 43.04138295 -72.625 41.0625 C-71.77574951 40.57612061 -70.92649902 40.08974121 -70.05151367 39.58862305 C-62.21602538 35.10775121 -54.34113182 30.69851007 -46.4621582 26.29467773 C-39.23601518 22.25497974 -32.01984186 18.19814545 -24.8125 14.125 C-23.86366943 13.5899585 -22.91483887 13.05491699 -21.93725586 12.50366211 C-17.78151997 10.15670853 -13.63577822 7.79731216 -9.5234375 5.375 C-8.86496826 4.98940918 -8.20649902 4.60381836 -7.52807617 4.20654297 C-5.83120319 3.20944159 -4.13993943 2.20281071 -2.44921875 1.1953125 C-1.23685547 0.60363281 -1.23685547 0.60363281 0 0 Z " transform="translate(542,320)" style="fill: #287BDC;"/><path d="M0 0 C0.66 0 1.32 0 2 0 C2.09362221 26.58269747 2.16406672 53.16537007 2.20724869 79.74819946 C2.22783564 92.09228033 2.2558821 104.4362585 2.30175781 116.78027344 C2.34174417 127.54478147 2.36746089 138.30921508 2.37635398 149.07379532 C2.38154877 154.76861031 2.39367734 160.46321249 2.42292023 166.15795898 C2.450276 171.52924436 2.45840459 176.90023131 2.45243073 182.27157974 C2.45352201 184.23219556 2.46135475 186.19282242 2.4768219 188.15337753 C2.6316239 208.80627974 -0.98999123 226.45577625 -14 243 C-14.67289062 243.93972656 -14.67289062 243.93972656 -15.359375 244.8984375 C-23.13340356 255.11984542 -36.06481271 262.00084017 -48 266 C-48.74207073 266.25302037 -49.48414146 266.50604074 -50.24869919 266.7667284 C-60.42969569 269.78436552 -70.58690628 269.39964467 -81.09863281 269.34057617 C-83.21860238 269.33972877 -85.33857282 269.34020726 -87.45854187 269.34190369 C-93.18293348 269.34276063 -98.90713459 269.32518373 -104.63148212 269.30418181 C-110.62522211 269.28536465 -116.61896697 269.28366061 -122.61273193 269.28010559 C-133.94902532 269.27079991 -145.2852314 269.24620613 -156.62148643 269.21605712 C-169.53323589 269.1824671 -182.44498963 269.16601554 -195.35677195 269.15097082 C-221.90456294 269.11965526 -248.45227657 269.06692354 -275 269 C-271.98564103 265.11368905 -269.01092621 262.26527856 -265.0625 259.3125 C-263.90451387 258.44458923 -262.74697504 257.57608139 -261.58984375 256.70703125 C-260.99800293 256.26439941 -260.40616211 255.82176758 -259.79638672 255.36572266 C-258.00735252 254.00558983 -256.2528205 252.61045915 -254.50390625 251.19921875 C-253.93728271 250.74699951 -253.37065918 250.29478027 -252.78686523 249.82885742 C-251.2104177 248.56830153 -249.64017956 247.29999166 -248.0703125 246.03125 C-242.57384119 242.39490765 -237.17664366 241.75019504 -230.68899536 241.74171448 C-229.98699347 241.73803877 -229.28499159 241.73436307 -228.56171691 241.73057598 C-226.2274297 241.72065702 -223.89338357 241.7247345 -221.55908203 241.72875977 C-219.87808989 241.72436918 -218.19709992 241.71906582 -216.51611328 241.71292114 C-212.90448808 241.70144581 -209.29292136 241.69596354 -205.68127823 241.69503975 C-199.96535184 241.69309426 -194.24954588 241.67501478 -188.53366089 241.65428162 C-174.33668323 241.60515895 -160.13967295 241.57422318 -145.94262695 241.55297852 C-134.90695112 241.53643983 -123.87137889 241.51358425 -112.8357724 241.46995777 C-107.15898005 241.44822755 -101.48238473 241.44011924 -95.80555367 241.44235051 C-92.26729912 241.44067876 -88.72917226 241.42659963 -85.19096375 241.40913773 C-83.55638944 241.40355873 -81.92178843 241.40303401 -80.28721237 241.40807533 C-65.4639374 241.44898311 -50.84746015 238.35987732 -39.5859375 227.8125 C-26.3986356 212.74129783 -24.65965112 194.78668107 -24.85571289 175.58984375 C-24.86444201 173.97210198 -24.87211225 172.35435422 -24.8788147 170.73660278 C-24.89432347 167.27618848 -24.91513882 163.81586178 -24.93956184 160.35549927 C-24.97608033 154.87363169 -24.98740053 149.39188834 -24.99302673 143.90991211 C-24.99409127 142.98105855 -24.9951558 142.05220499 -24.9962526 141.09520435 C-24.99839153 139.19721991 -25.00047854 137.2992354 -25.00251472 135.40125084 C-25.01732654 122.65684502 -25.04912541 109.91300656 -25.1472168 97.16894531 C-25.21339624 88.54592859 -25.24032453 79.92375358 -25.22266573 71.30048847 C-25.21491419 66.7477054 -25.22684748 62.19693335 -25.28709602 57.64450073 C-25.34350502 53.36221225 -25.34795233 49.08290671 -25.31399918 44.80041122 C-25.31062537 43.23795851 -25.32575597 41.67532748 -25.36171913 40.11328506 C-25.5472057 31.56473717 -24.66827121 25.5046379 -18.64720154 19.20727539 C-16.81110463 17.40744093 -14.92511122 15.70834424 -13 14 C-11.76972229 12.76664987 -10.5455466 11.52706488 -9.3359375 10.2734375 C-8.35175887 9.30443901 -7.36493975 8.33811211 -6.375 7.375 C-2.74845973 4.02850882 -2.74845973 4.02850882 0 0 Z " transform="translate(520,372)" style="fill: #272727;"/><path d="M0 0 C1.84425861 0.00028264 3.68851733 0.00012264 5.53277588 -0.0004425 C10.5008659 -0.00072749 15.46893141 0.00512069 20.43701577 0.01213145 C25.64332722 0.01841498 30.84963933 0.01897273 36.05595398 0.02015686 C45.89762373 0.02325551 55.73928227 0.031449 65.5809471 0.04150635 C76.79264196 0.05271319 88.00433737 0.05818943 99.21603644 0.06320179 C122.26341525 0.07363294 145.31078415 0.0912038 168.3581543 0.11352539 C165.43775825 2.46852003 162.56411571 4.71888945 159.3815918 6.70727539 C158.62620117 7.18165039 157.87081055 7.65602539 157.0925293 8.14477539 C156.31393555 8.62946289 155.5353418 9.11415039 154.7331543 9.61352539 C153.22001672 10.56125569 151.70700327 11.5091842 150.1940918 12.45727539 C149.34589371 12.96408844 148.49769562 13.47090149 147.62379456 13.99307251 C145.15273133 15.59758884 142.99809784 17.19491219 140.73350525 19.04916382 C126.88196935 29.7919537 113.01579502 29.77503159 96.22842574 29.46631861 C92.48346302 29.41108593 88.73874952 29.4271028 84.9934845 29.43527222 C77.91621397 29.44062063 70.84076655 29.38718914 63.76396304 29.31005275 C53.39935581 29.1997455 43.03448059 29.17934889 32.6693697 29.15862846 C31.12766831 29.15541555 29.585967 29.15217139 28.04426575 29.14889526 C27.29051472 29.14739845 26.53676368 29.14590164 25.76017171 29.14435947 C21.33064331 29.13358546 16.90163927 29.10600774 12.47231424 29.06242871 C10.37658335 29.04256831 8.28086669 29.02707405 6.18508911 29.01307678 C3.65104579 28.9951921 1.11703731 28.96974583 -1.41682434 28.93452454 C-18.10904954 28.84441578 -32.40151581 31.03390323 -45.0793457 42.67602539 C-53.33740016 51.57350086 -58.91847251 63.65687711 -58.8664856 75.86180115 C-58.8660878 77.1808847 -58.86569 78.49996826 -58.86528015 79.85902405 C-58.85488876 81.30380337 -58.84437125 82.74858179 -58.83374023 84.19335938 C-58.82993813 85.72818801 -58.82713136 87.26301938 -58.82524109 88.79785156 C-58.81981174 92.09356243 -58.80884347 95.38919207 -58.79397964 98.68487358 C-58.77198719 103.90063151 -58.77160137 109.11625188 -58.77584839 114.33204651 C-58.77704162 116.12073038 -58.77821063 117.90941428 -58.779356 119.69809818 C-58.77993625 120.59357589 -58.78051651 121.4890536 -58.78111434 122.41166699 C-58.78713239 134.54686245 -58.77472414 146.68181133 -58.72094727 158.81689453 C-58.68479558 167.01385775 -58.67707627 175.21032257 -58.70144546 183.40733582 C-58.71311886 187.74059962 -58.71010654 192.07274707 -58.67193985 196.40588188 C-58.63614859 200.48170444 -58.63761592 204.55583462 -58.66716957 208.63169098 C-58.67137935 210.12320352 -58.6620182 211.61482875 -58.637743 213.10614967 C-58.46576244 224.35708519 -58.46576244 224.35708519 -61.37108994 228.69609261 C-63.36242706 230.6962357 -65.41472937 232.38648271 -67.6418457 234.11352539 C-68.7739996 235.33823417 -69.88278611 236.58546277 -70.9543457 237.86352539 C-74.0872283 241.49795996 -77.28583151 245.06643939 -80.5168457 248.61352539 C-81.00580322 249.15460938 -81.49476074 249.69569336 -81.99853516 250.25317383 C-83.19193097 251.55949538 -84.41429218 252.83924838 -85.6418457 254.11352539 C-85.9718457 254.11352539 -86.3018457 254.11352539 -86.6418457 254.11352539 C-86.73541602 228.65247155 -86.80588712 203.1914436 -86.84909439 177.73025227 C-86.86969229 165.90734918 -86.89775987 154.08455313 -86.94360352 142.26171875 C-86.98355616 131.95320107 -87.00929865 121.64476094 -87.01819968 111.33616799 C-87.02340015 105.88121861 -87.03556528 100.42649101 -87.06476593 94.97161293 C-87.09206823 89.82932984 -87.10026089 84.68735831 -87.09427643 79.54500961 C-87.09537007 77.66537338 -87.10323513 75.78572592 -87.1186676 73.90615273 C-87.28747019 52.27217774 -80.89404211 35.78069205 -65.8293457 19.98852539 C-46.88068975 1.58963702 -25.08269447 -0.05431693 0 0 Z " transform="translate(303.641845703125,339.886474609375)" style="fill: #257CDF;"/><path d="M0 0 C5.94 0 11.88 0 18 0 C18 35.97 18 71.94 18 109 C6.52716003 110.27476 -4.41083954 111.38528469 -15.875 111.4375 C-17.82019531 111.48680664 -17.82019531 111.48680664 -19.8046875 111.53710938 C-30.71161179 111.59758123 -40.54936795 109.26322863 -48.61328125 101.51171875 C-56.87141888 92.50918562 -58.71803102 81.47940398 -58.25390625 69.703125 C-57.46600555 58.21189632 -53.55924646 49.70061157 -45.10546875 41.72265625 C-35.60024479 33.94565483 -23.86772105 32.96657485 -12 34 C-8.04 34.99 -4.08 35.98 0 37 C0 24.79 0 12.58 0 0 Z " transform="translate(1353,437)" style="fill: #292A29;"/><path d="M0 0 C0 5.28 0 10.56 0 16 C-3.7434375 15.2575 -3.7434375 15.2575 -7.5625 14.5 C-15.03707627 13.17971847 -22.41348055 12.64162283 -30 12.5625 C-30.94174072 12.54058594 -31.88348145 12.51867187 -32.85375977 12.49609375 C-41.71110586 12.5210638 -49.90511266 15.01853735 -56.46875 21.1796875 C-64.1389255 30.29780429 -65.14736031 41.1474219 -65.25 52.5625 C-65.25942627 53.35390381 -65.26885254 54.14530762 -65.27856445 54.96069336 C-65.22374747 64.94048708 -63.20423663 74.17379362 -56.3984375 81.79296875 C-49.70894713 87.97845642 -41.45712852 90.14780519 -32.48046875 90.09765625 C-31.09831177 90.09390991 -31.09831177 90.09390991 -29.68823242 90.09008789 C-28.53299072 90.08098389 -27.37774902 90.07187988 -26.1875 90.0625 C-22.495625 90.041875 -18.80375 90.02125 -15 90 C-15 81.09 -15 72.18 -15 63 C-20.61 63 -26.22 63 -32 63 C-32 58.05 -32 53.1 -32 48 C-20.45 48 -8.9 48 3 48 C3 65.49 3 82.98 3 101 C-9.62304299 103.65748273 -19.85226091 105.64805209 -32.375 105.5 C-33.72006647 105.51433348 -35.06511977 105.52996039 -36.41015625 105.546875 C-50.30627444 105.49243379 -61.56538308 102.40488499 -72 93 C-84.77771898 79.2639521 -85.58898141 61.77911623 -85.08886719 43.95947266 C-84.46270464 30.15293261 -78.9736755 17.60495062 -68.97265625 8.06640625 C-49.21266033 -8.54914186 -23.27436928 -5.09624508 0 0 Z " transform="translate(1049,443)" style="fill: #292A2A;"/><path d="M0 0 C0 4.95 0 9.9 0 15 C-2.124375 14.67 -4.24875 14.34 -6.4375 14 C-13.94558883 12.98688177 -21.42966927 12.74532698 -29 12.6875 C-30.0614624 12.67009766 -31.1229248 12.65269531 -32.21655273 12.63476562 C-38.52253843 12.63874385 -43.2904058 13.25754445 -49 16 C-51.53017822 18.8464505 -51.9484028 20.60196443 -52.4375 24.375 C-51.922719 28.64032827 -50.8378479 31.79029967 -48 35 C-40.34364613 39.34573932 -31.9789731 42.10433317 -23.73046875 45.11328125 C-13.05515049 49.11185437 -2.27200388 53.57384063 3.1328125 64.234375 C5.68507407 72.37402002 5.0657156 83.20600603 1.38671875 90.88671875 C-3.98967056 99.08003317 -12.50278699 103.14076815 -21.8125 105.25 C-37.89922111 107.77340723 -55.42118413 106.45109025 -71 102 C-71 96.72 -71 91.44 -71 86 C-69.89527344 86.28875 -68.79054688 86.5775 -67.65234375 86.875 C-58.38630899 89.14380027 -49.49142778 90.40628056 -39.9375 90.4375 C-38.5306897 90.45200195 -38.5306897 90.45200195 -37.09545898 90.46679688 C-29.79227869 90.37879896 -22.14375114 89.61979262 -16.375 84.8125 C-13.97168677 79.89663204 -14.42119355 75.84494557 -16 70.8125 C-21.32500116 63.32421712 -30.41872376 61.30338781 -38.73828125 58.46484375 C-52.07819473 53.90953448 -64.14448484 49.05330562 -71 36 C-73.08984134 29.73047598 -73.07912568 21.6479712 -71.19921875 15.29296875 C-67.64887379 8.3264843 -61.94584948 2.61761128 -54.703125 -0.3515625 C-51.48321788 -1.36415772 -48.28937972 -2.24582874 -45 -3 C-44.25621094 -3.19078125 -43.51242187 -3.3815625 -42.74609375 -3.578125 C-28.30270828 -5.79702348 -13.94695091 -3.85693457 0 0 Z " transform="translate(657,443)" style="fill: #2A7ADA;"/><path d="M0 0 C5.58973305 5.3770219 8.41489246 12.7982648 8.79751587 20.44696045 C8.79658324 22.71118011 8.76372467 24.97556609 8.70230103 27.23895264 C8.69381134 28.44275574 8.68532166 29.64655884 8.67657471 30.88684082 C8.64330315 34.68745929 8.56806714 38.48586326 8.49136353 42.28582764 C8.4612303 44.88084883 8.43386044 47.47590366 8.40933228 50.07098389 C8.34359793 56.39333902 8.24351431 62.71442507 8.11636353 69.03582764 C0.45023753 69.38216193 -7.21636337 69.71586615 -14.88363647 70.03582764 C-15.6480304 70.06795349 -16.41242432 70.10007935 -17.19998169 70.13317871 C-21.32357103 70.30082259 -25.44485391 70.40247968 -29.57113647 70.47332764 C-31.26786499 70.54197021 -31.26786499 70.54197021 -32.99887085 70.61199951 C-41.45929938 70.72389707 -47.82491966 68.77515204 -54.88363647 64.03582764 C-59.81077898 59.05171629 -61.05652036 54.13436549 -61.19613647 47.28582764 C-61.13421578 39.77794316 -60.01864822 36.26304561 -54.75863647 30.84832764 C-44.15061146 24.16065969 -33.56811311 23.87859187 -21.38363647 23.97332764 C-19.72074585 23.98009521 -19.72074585 23.98009521 -18.02426147 23.98699951 C-15.31066248 23.99869606 -12.59717887 24.01508678 -9.88363647 24.03582764 C-10.00459634 22.42052511 -10.13698551 20.80607542 -10.27426147 19.19207764 C-10.34677124 18.29295654 -10.41928101 17.39383545 -10.49398804 16.46746826 C-10.72873551 13.86987632 -10.72873551 13.86987632 -12.63363647 11.53582764 C-17.52514956 8.27481892 -21.80943614 7.75477556 -27.59066772 7.84051514 C-28.67875984 7.84475998 -28.67875984 7.84475998 -29.78883362 7.84909058 C-32.09144015 7.86022964 -34.39364874 7.88532197 -36.69613647 7.91082764 C-38.26318812 7.92086557 -39.83024591 7.92999 -41.39730835 7.93817139 C-45.22623626 7.96014834 -49.05486904 7.99463424 -52.88363647 8.03582764 C-52.88363647 3.74582764 -52.88363647 -0.54417236 -52.88363647 -4.96417236 C-38.11642493 -9.88657621 -12.72560548 -9.67214847 0 0 Z " transform="translate(772.8836364746094,477.96417236328125)" style="fill: #2C7CDA;"/><path d="M0 0 C6.36876218 5.41344785 9.43358336 10.81704179 10.5 19.125 C10.63503358 23.03949616 10.61629337 26.95077484 10.59765625 30.8671875 C10.5962413 31.99069611 10.59482635 33.11420471 10.59336853 34.27175903 C10.58778664 37.84786683 10.57523741 41.42391123 10.5625 45 C10.55748266 47.42968659 10.55292016 49.85937417 10.54882812 52.2890625 C10.53782314 58.23439651 10.52110301 64.17969372 10.5 70.125 C1.16811023 70.51016116 -8.16448706 70.84054171 -17.5 71.125 C-18.63469727 71.16189941 -19.76939453 71.19879883 -20.93847656 71.23681641 C-24.02154005 71.32782418 -27.10352098 71.38819332 -30.1875 71.4375 C-31.09894775 71.46714844 -32.01039551 71.49679687 -32.94946289 71.52734375 C-42.0092844 71.60824254 -49.04991168 68.42151479 -55.5 62.125 C-59.35319046 56.81025454 -60.03070373 51.59958552 -59.5 45.125 C-57.90111552 38.70909412 -55.56482198 33.97530205 -49.8984375 30.375 C-36.44864516 23.36533624 -22.30194517 24.71149342 -7.5 25.125 C-7.60634739 23.69696049 -7.72779455 22.27004097 -7.85546875 20.84375 C-7.92145264 20.04904297 -7.98743652 19.25433594 -8.05541992 18.43554688 C-8.80564182 14.53653531 -10.61678014 12.80706499 -13.5 10.125 C-17.2185412 8.69648367 -21.18361462 8.99844719 -25.109375 9.02734375 C-25.83618469 9.0287587 -26.56299438 9.03017365 -27.31182861 9.03163147 C-29.62459494 9.03721208 -31.93726312 9.04976096 -34.25 9.0625 C-35.82161318 9.06751751 -37.39322789 9.07207998 -38.96484375 9.07617188 C-42.80993343 9.08717515 -46.6549501 9.10442639 -50.5 9.125 C-50.5 4.835 -50.5 0.545 -50.5 -3.875 C-33.30109826 -6.86611335 -15.87427062 -8.50407355 0 0 Z " transform="translate(1214.5,476.875)" style="fill: #2C2C2C;"/><path d="M0 0 C4.53744883 1.60247713 8.39365092 3.94313339 12.4375 6.5 C13.13472168 6.93997314 13.83194336 7.37994629 14.55029297 7.83325195 C37.83128056 22.66256112 37.83128056 22.66256112 42.375 31.75 C43.76635556 38.98504891 44.0599875 45.7681267 40.26171875 52.28515625 C36.64127445 57.20582204 31.77426419 60.21603308 26 62 C23.06392184 62.38919309 20.17719366 62.38104898 17.21899414 62.34057617 C16.36941132 62.34101425 15.51982849 62.34145233 14.64450073 62.34190369 C11.85781251 62.33982648 9.07173838 62.31654623 6.28515625 62.29296875 C4.34460275 62.28736899 2.40404499 62.28310069 0.46348572 62.28010559 C-4.62797894 62.26868674 -9.71918423 62.23924508 -14.81054688 62.20599365 C-20.01233411 62.17522887 -25.21416351 62.16158658 -30.41601562 62.14648438 C-40.61079063 62.1143725 -50.80537369 62.06321204 -61 62 C-60.04867608 60.88323427 -59.09636668 59.76730799 -58.14364624 58.6517334 C-57.61343557 58.03021141 -57.08322491 57.40868942 -56.53694725 56.76833344 C-54.6188878 54.56151166 -52.60469482 52.47514703 -50.5390625 50.40625 C-49.33636719 49.20162109 -49.33636719 49.20162109 -48.109375 47.97265625 C-47.28953125 47.15667969 -46.4696875 46.34070313 -45.625 45.5 C-44.81289063 44.68402344 -44.00078125 43.86804688 -43.1640625 43.02734375 C-39.59965213 39.46864558 -36.03054224 35.9705449 -32.19921875 32.69921875 C-26.82824506 28.07883863 -21.87747923 23.02677142 -16.88012695 18.01049805 C-15.17707773 16.30204466 -13.46869013 14.59905872 -11.75976562 12.89648438 C-10.66634554 11.80240417 -9.57323532 10.70801418 -8.48046875 9.61328125 C-7.97420456 9.10904129 -7.46794037 8.60480133 -6.94633484 8.08528137 C-4.40356977 5.52562337 -2.07409117 2.95517524 0 0 Z " transform="translate(385,487)" style="fill: #FAFAFA;"/><path d="M0 0 C5.94 0 11.88 0 18 0 C18.495 20.295 18.495 20.295 19 41 C20.98 39.68 22.96 38.36 25 37 C34.67969775 32.55794692 46.74844673 32.39069762 56.75 35.89453125 C63.47166829 39.19701758 67.89558646 44.29446676 71 51 C71.87892705 54.52931121 72.1221898 57.80247516 72.11352539 61.43286133 C72.11341209 63.02394463 72.11341209 63.02394463 72.11329651 64.64717102 C72.10813522 65.7806749 72.10297394 66.91417877 72.09765625 68.08203125 C72.0962413 69.25134689 72.09482635 70.42066254 72.09336853 71.62541199 C72.08777793 75.35446751 72.07522709 79.08346267 72.0625 82.8125 C72.05748379 85.34309809 72.05292109 87.87369712 72.04882812 90.40429688 C72.03781156 96.60288779 72.02055332 102.80143366 72 109 C66.39 109 60.78 109 55 109 C54.98541748 107.51677246 54.97083496 106.03354492 54.95581055 104.50537109 C54.89775551 98.99243288 54.82052221 93.47990001 54.73754883 87.96728516 C54.70433354 85.58323759 54.67629108 83.19911203 54.65356445 80.81494141 C54.61995682 77.38410261 54.56763593 73.95397637 54.51171875 70.5234375 C54.50532883 69.46071625 54.4989389 68.397995 54.49235535 67.30307007 C54.38413671 61.83267458 54.17942627 57.67307487 51 53 C48.53884453 51.15565651 48.53884453 51.15565651 46 50 C45.01 49.505 45.01 49.505 44 49 C42.04830439 48.7960915 40.08636576 48.6861457 38.125 48.625 C37.07570313 48.57601562 36.02640625 48.52703125 34.9453125 48.4765625 C29.46444414 49.02984093 29.46444414 49.02984093 19 54 C18.67 72.48 18.34 90.96 18 110 C12.06 110 6.12 110 0 110 C0 73.7 0 37.4 0 0 Z " transform="translate(875,437)" style="fill: #2978D8;"/><path d="M0 0 C5.61 0 11.22 0 17 0 C17.01458252 1.40693115 17.02916504 2.8138623 17.04418945 4.26342773 C17.10242818 9.51367839 17.17965923 14.76351161 17.26245117 20.01342773 C17.29558052 22.27996006 17.32364928 24.54657251 17.34643555 26.81323242 C17.38020235 30.08286488 17.43252972 33.35177098 17.48828125 36.62109375 C17.49467117 37.62458359 17.5010611 38.62807343 17.50764465 39.66197205 C17.63302966 45.74504263 18.17092695 51.50999836 21 57 C25.56852147 60.82264041 29.40131919 61.62800768 35.3046875 61.40234375 C39.28092202 60.8087899 42.84178487 59.48271432 46.5546875 57.97265625 C49 57 49 57 53 56 C53 37.52 53 19.04 53 0 C58.94 0 64.88 0 71 0 C71 24.42 71 48.84 71 74 C65.39 74 59.78 74 54 74 C54 71.36 54 68.72 54 66 C53.39414063 66.39832031 52.78828125 66.79664063 52.1640625 67.20703125 C41.14254752 74.17601995 30.21021462 77.20874031 17.12890625 74.37890625 C9.60297926 71.80153399 5.223344 67.00519245 1.42626953 60.16503906 C-0.86340189 54.69227913 -0.3689121 48.8971023 -0.29296875 43.06640625 C-0.28872391 41.83333237 -0.28447906 40.60025848 -0.28010559 39.32981873 C-0.26336737 35.40715326 -0.22572265 31.48500914 -0.1875 27.5625 C-0.17075097 24.89649189 -0.15875969 22.23048868 -0.14648438 19.56445312 C-0.11347951 13.04276911 -0.06172939 6.52147283 0 0 Z " transform="translate(1069,473)" style="fill: #282928;"/><path d="M0 0 C0.9077417 0.00386719 1.8154834 0.00773437 2.75073242 0.01171875 C9.92185439 0.10341945 16.63347611 0.89018817 23.6875 2.25 C23.6875 6.54 23.6875 10.83 23.6875 15.25 C22.470625 15.270625 21.25375 15.29125 20 15.3125 C19.31550781 15.32410156 18.63101563 15.33570313 17.92578125 15.34765625 C15.6875 15.25 15.6875 15.25 13.35205078 14.7565918 C9.0015849 13.92946914 4.66681403 14.02441915 0.25 14 C-0.67876953 13.979375 -1.60753906 13.95875 -2.56445312 13.9375 C-7.93784782 13.90690416 -11.63533286 14.2828489 -16.3125 17.25 C-16.72597029 21.81798949 -16.72597029 21.81798949 -15.25 26 C-9.96991123 29.40650888 -3.99698313 30.99100007 2 32.625 C12.00507019 35.49038809 20.58764334 38.31404762 26.6875 47.25 C28.80174148 51.47848295 28.18315837 56.65952761 27.6875 61.25 C25.53277826 67.55627613 22.46131292 70.91125991 16.6875 74.25 C1.04858429 80.04086708 -16.14560646 79.59067031 -32.3125 76.25 C-32.9725 75.92 -33.6325 75.59 -34.3125 75.25 C-34.3125 70.96 -34.3125 66.67 -34.3125 62.25 C-33.22195313 62.394375 -32.13140625 62.53875 -31.0078125 62.6875 C-22.88613019 63.70963811 -14.81497618 64.47308603 -6.625 64.5625 C-5.89619629 64.57990234 -5.16739258 64.59730469 -4.41650391 64.61523438 C0.64846474 64.61055866 4.15026372 63.5037517 8.6875 61.25 C8.77 59.991875 8.8525 58.73375 8.9375 57.4375 C8.98390625 56.72980469 9.0303125 56.02210938 9.078125 55.29296875 C8.87429075 53.11803811 8.87429075 53.11803811 7.03686523 51.75048828 C4.31982786 50.01517583 1.78891316 49.14507752 -1.29296875 48.19921875 C-2.45763672 47.82990234 -3.62230469 47.46058594 -4.82226562 47.08007812 C-7.2529617 46.32492295 -9.68523662 45.57482911 -12.11914062 44.83007812 C-20.81663939 42.05855816 -29.03699286 39.09106123 -34.3125 31.25 C-36.21376568 25.70370426 -36.48346353 19.15953152 -34.2890625 13.70703125 C-30.427617 7.33884626 -25.35844855 3.56118338 -18.1496582 1.68798828 C-12.05877515 0.33923728 -6.22528585 -0.0648769 0 0 Z " transform="translate(831.3125,470.75)" style="fill: #2B7BDA;"/><path d="M0 0 C5.94 0 11.88 0 18 0 C18 36.3 18 72.6 18 110 C12.06 110 6.12 110 0 110 C0 73.7 0 37.4 0 0 Z " transform="translate(678,437)" style="fill: #2878D7;"/><path d="M0 0 C0.67740234 -0.00773437 1.35480469 -0.01546875 2.05273438 -0.0234375 C6.96332193 -0.00460495 10.12775551 0.840073 15.0625 2.25 C15.0625 18.09 15.0625 33.93 15.0625 50.25 C-11.98154145 50.25 -11.98154145 50.25 -17.92578125 45.7421875 C-24.25623524 38.0111906 -25.53763222 30.53844568 -25.28125 20.625 C-24.51590815 13.1107346 -21.67478895 8.23291095 -15.9140625 3.44140625 C-10.82549582 0.3741872 -5.82035648 -0.06607784 0 0 Z " transform="translate(1337.9375,484.75)" style="fill: #FAFAFA;"/><path d="M0 0 C0 4.95 0 9.9 0 15 C-2.26875 15.226875 -4.5375 15.45375 -6.875 15.6875 C-14.45970529 16.44597053 -17.48876406 18.24438203 -25 22 C-25.33 39.82 -25.66 57.64 -26 76 C-31.94 76 -37.88 76 -44 76 C-44 51.58 -44 27.16 -44 2 C-38.72 2 -33.44 2 -28 2 C-27.34 4.31 -26.68 6.62 -26 9 C-25.443125 8.60167969 -24.88625 8.20335937 -24.3125 7.79296875 C-16.05615253 2.06094373 -10.10780069 -0.47380316 0 0 Z " transform="translate(1287,471)" style="fill: #282828;"/><path d="M0 0 C1.44681152 0.00374634 1.44681152 0.00374634 2.92285156 0.00756836 C4.74768066 0.02122437 4.74768066 0.02122437 6.609375 0.03515625 C10.486875 0.05578125 14.364375 0.07640625 18.359375 0.09765625 C18.359375 8.01765625 18.359375 15.93765625 18.359375 24.09765625 C13.11041294 25.14744866 8.31058093 25.35467494 2.984375 25.41015625 C2.06398438 25.43916016 1.14359375 25.46816406 0.1953125 25.49804688 C-5.98063157 25.55539493 -9.6232412 24.77133436 -14.640625 21.09765625 C-17.61606082 16.63450252 -17.6313952 12.31968567 -16.640625 7.09765625 C-12.38280583 1.06671786 -7.02171364 -0.03734954 0 0 Z " transform="translate(1189.640625,511.90234375)" style="fill: #F6F6F6;"/><path d="M0 0 C3.83625 0.04125 7.6725 0.0825 11.625 0.125 C11.625 8.045 11.625 15.965 11.625 24.125 C6.81568154 25.08686369 2.61073252 25.30850925 -2.25 25.3125 C-3.02730469 25.32474609 -3.80460938 25.33699219 -4.60546875 25.34960938 C-10.9464576 25.36559506 -16.3147551 24.87839991 -21.3125 20.625 C-23.90053143 17.1255688 -24.08993318 13.72376561 -23.859375 9.46484375 C-23.09030569 5.74974281 -21.43416416 4.2531142 -18.375 2.125 C-12.47241121 -0.61548765 -6.35980837 -0.09663283 0 0 Z " transform="translate(752.375,511.875)" style="fill: #F7F9FC;"/><path d="M0 0 C0 3 0 3 -2.40625 5.69921875 C-3.4299968 6.70302243 -4.4616054 7.69885649 -5.5 8.6875 C-6.02464844 9.19861328 -6.54929687 9.70972656 -7.08984375 10.23632812 C-8.38660904 11.49772708 -9.69246117 12.74977212 -11 14 C-11.66 13.34 -12.32 12.68 -13 12 C-4.738041 3.55353075 -4.738041 3.55353075 0 0 Z " transform="translate(469,397)" style="fill: #6F7071;"/></svg>